name C:\Users\u0101727\Documents\MyRepositories\upper-imu-dc\Results\main_tracking\Case_22\SHRUG01_angularVelocities_groundFrame.mot
datacolumns 4
datarows 70
range 0.71000000 1.40000000
endheader 
time	radius_imu_x	radius_imu_y	radius_imu_z	
          0.71000000	          0.03367293	          0.68384722	         -0.15213371	
          0.72000000	         -0.12112305	          0.66977627	         -0.12928240	
          0.73000000	         -0.22488438	          0.66261850	         -0.11428747	
          0.74000000	         -0.29032208	          0.64185569	         -0.10027094	
          0.75000000	         -0.32668443	          0.58755995	         -0.08008340	
          0.76000000	         -0.34042467	          0.48180755	         -0.04626599	
          0.77000000	         -0.33623721	          0.31146422	          0.00812211	
          0.78000000	         -0.31713507	          0.06715055	          0.08945924	
          0.79000000	         -0.28407546	         -0.25868720	          0.20317600	
          0.80000000	         -0.23615511	         -0.66919887	          0.35107118	
          0.81000000	         -0.17226566	         -1.15196998	          0.52512191	
          0.82000000	         -0.09640252	         -1.64470914	          0.69009459	
          0.83000000	         -0.02353477	         -2.00384379	          0.77093138	
          0.84000000	         -0.02006122	         -1.74349809	          0.52129365	
          0.85000000	         -0.10793957	         -0.58333428	         -0.15998673	
          0.86000000	         -0.15145620	          0.35914285	         -0.69204653	
          0.87000000	         -0.12469973	          0.36608716	         -0.73654552	
          0.88000000	         -0.06244757	         -0.20932043	         -0.39886024	
          0.89000000	         -0.00542195	         -0.95582197	          0.08086894	
          0.90000000	          0.02764969	         -1.57286849	          0.51408391	
          0.91000000	         -0.01983646	         -1.47756582	          0.57142912	
          0.92000000	         -0.15138611	         -0.53710790	          0.19130925	
          0.93000000	         -0.23368218	         -0.03595211	          0.02090977	
          0.94000000	         -0.23066462	         -0.17211201	          0.17691476	
          0.95000000	         -0.25471966	         -0.08573816	          0.20999901	
          0.96000000	         -0.26421902	          0.00958046	          0.21308619	
          0.97000000	         -0.26443664	          0.13930581	          0.16441703	
          0.98000000	         -0.27993269	          0.47824162	         -0.01394534	
          0.99000000	         -0.34533010	          1.15676912	         -0.39536552	
          1.00000000	         -0.40631613	          1.77493032	         -0.75539114	
          1.01000000	         -0.41985108	          1.84317530	         -0.82285688	
          1.02000000	         -0.40360951	          1.55739636	         -0.68105652	
          1.03000000	         -0.38111006	          1.13482420	         -0.44583834	
          1.04000000	         -0.35611583	          0.65268682	         -0.15851246	
          1.05000000	         -0.32771445	          0.15404889	          0.15536261	
          1.06000000	         -0.29416510	         -0.32521108	          0.47172539	
          1.07000000	         -0.25792046	         -0.72097266	          0.74730141	
          1.08000000	         -0.23051320	         -0.90671593	          0.89836784	
          1.09000000	         -0.24296455	         -0.63613782	          0.77081895	
          1.10000000	         -0.35273008	          0.44819076	          0.19960606	
          1.11000000	         -0.40999591	          1.55088391	         -0.51637123	
          1.12000000	         -0.42709268	          1.93749717	         -0.73983972	
          1.13000000	         -0.39172017	          1.83400650	         -0.65205762	
          1.14000000	         -0.34129824	          1.51962196	         -0.43842257	
          1.15000000	         -0.29237971	          1.13580064	         -0.19408940	
          1.16000000	         -0.25367261	          0.76359485	          0.02823942	
          1.17000000	         -0.22873657	          0.44429444	          0.20590417	
          1.18000000	         -0.21854452	          0.19796051	          0.33260254	
          1.19000000	         -0.22257264	          0.03190073	          0.41092559	
          1.20000000	         -0.23933344	         -0.05483441	          0.44765209	
          1.21000000	         -0.26658571	         -0.06931811	          0.45112161	
          1.22000000	         -0.30146125	         -0.02341315	          0.42979533	
          1.23000000	         -0.34064022	          0.06759280	          0.39148787	
          1.24000000	         -0.38059506	          0.18655055	          0.34300334	
          1.25000000	         -0.41784068	          0.31593125	          0.29007216	
          1.26000000	         -0.44911827	          0.43893044	          0.23749180	
          1.27000000	         -0.47148944	          0.54015373	          0.18932651	
          1.28000000	         -0.48239524	          0.60613802	          0.14901090	
          1.29000000	         -0.47979817	          0.62612895	          0.11923102	
          1.30000000	         -0.46251288	          0.59340918	          0.10153342	
          1.31000000	         -0.43068243	          0.50691154	          0.09580714	
          1.32000000	         -0.38617379	          0.37228003	          0.09996219	
          1.33000000	         -0.33265027	          0.20162770	          0.11005108	
          1.34000000	         -0.27520782	          0.01181933	          0.12085807	
          1.35000000	         -0.21961622	         -0.17832315	          0.12682161	
          1.36000000	         -0.17136473	         -0.35107704	          0.12305195	
          1.37000000	         -0.13478176	         -0.49232167	          0.10619731	
          1.38000000	         -0.11241058	         -0.59311371	          0.07503025	
          1.39000000	         -0.10469465	         -0.65035136	          0.03072411	
          1.40000000	         -0.10995957	         -0.66663076	         -0.02323180	
